<?xml version="1.0" encoding="utf-8"?>
<!-- Generator: Adobe Illustrator 24.2.1, SVG Export Plug-In . SVG Version: 6.00 Build 0)  -->
<svg version="1.1" id="图层_1" xmlns="http://www.w3.org/2000/svg" xmlns:xlink="http://www.w3.org/1999/xlink" x="0px" y="0px"
	 viewBox="0 0 74.02 32.52" style="enable-background:new 0 0 74.02 32.52;" xml:space="preserve">
<style type="text/css">
	.st0{opacity:0.7;fill:#DCDDDD;}
	.st1{clip-path:url(#SVGID_2_);fill:#181717;}
	.st2{fill:#181717;}
	.st3{fill:none;}
</style>
<rect class="st0" width="74.02" height="32.52"/>
<g>
	<g>
		<defs>
			<rect id="SVGID_1_" x="1.72" y="1.68" width="29.52" height="28.85"/>
		</defs>
		<clipPath id="SVGID_2_">
			<use xlink:href="#SVGID_1_"  style="overflow:visible;"/>
		</clipPath>
		<path class="st1" d="M16.49,1.7C8.32,1.7,1.72,8.3,1.72,16.47c0,6.53,4.23,12.05,10.1,14.01c0.73,0.15,1-0.32,1-0.71
			c0-0.34-0.02-1.52-0.02-2.74c-4.11,0.88-4.96-1.76-4.96-1.76c-0.66-1.71-1.64-2.15-1.64-2.15c-1.34-0.9,0.1-0.9,0.1-0.9
			c1.49,0.1,2.27,1.52,2.27,1.52c1.32,2.25,3.45,1.61,4.3,1.22c0.12-0.95,0.51-1.61,0.93-1.98c-3.28-0.34-6.72-1.61-6.72-7.28
			c0-1.61,0.59-2.93,1.52-3.96c-0.15-0.37-0.66-1.88,0.15-3.91c0,0,1.25-0.39,4.06,1.52c1.17-0.32,2.44-0.49,3.69-0.49
			c1.25,0,2.52,0.17,3.69,0.49c2.81-1.91,4.06-1.52,4.06-1.52c0.81,2.03,0.29,3.54,0.15,3.91c0.95,1.03,1.52,2.35,1.52,3.96
			c0,5.67-3.45,6.92-6.75,7.28c0.54,0.46,1,1.34,1,2.74c0,1.98-0.02,3.57-0.02,4.06c0,0.39,0.27,0.86,1,0.71
			c5.87-1.96,10.1-7.48,10.1-14.01C31.25,8.3,24.63,1.7,16.49,1.7L16.49,1.7z M16.49,1.7"/>
	</g>
	<path class="st2" d="M7.32,22.89c-0.02,0.07-0.15,0.1-0.24,0.05c-0.1-0.05-0.17-0.15-0.12-0.22c0.02-0.07,0.15-0.1,0.24-0.05
		C7.29,22.72,7.34,22.82,7.32,22.89L7.32,22.89z M7.91,23.56c-0.07,0.07-0.22,0.02-0.29-0.07c-0.1-0.1-0.12-0.24-0.05-0.32
		c0.07-0.07,0.2-0.02,0.29,0.07C7.95,23.36,7.98,23.51,7.91,23.56L7.91,23.56z M8.49,24.41c-0.1,0.07-0.24,0-0.32-0.12
		c-0.1-0.12-0.1-0.29,0-0.34c0.1-0.07,0.24,0,0.32,0.12C8.59,24.19,8.59,24.34,8.49,24.41L8.49,24.41z M9.3,25.24
		c-0.07,0.1-0.24,0.07-0.39-0.05c-0.12-0.12-0.17-0.29-0.07-0.37c0.07-0.1,0.24-0.07,0.39,0.05C9.35,24.97,9.37,25.14,9.3,25.24
		L9.3,25.24z M10.4,25.71c-0.02,0.12-0.2,0.17-0.37,0.12c-0.17-0.05-0.27-0.2-0.24-0.29c0.02-0.12,0.2-0.17,0.37-0.12
		C10.33,25.46,10.42,25.58,10.4,25.71L10.4,25.71z M11.6,25.8c0,0.12-0.15,0.22-0.32,0.22s-0.32-0.1-0.32-0.22
		c0-0.12,0.15-0.22,0.32-0.22S11.6,25.68,11.6,25.8L11.6,25.8z M12.72,25.61c0.02,0.12-0.1,0.24-0.27,0.27
		c-0.17,0.02-0.32-0.05-0.34-0.17c-0.02-0.12,0.1-0.24,0.27-0.27C12.55,25.41,12.7,25.49,12.72,25.61L12.72,25.61z M12.72,25.61"/>
</g>
<g>
	<rect x="32.16" y="1.12" class="st3" width="41.87" height="30.03"/>
	<path d="M37.27,13.02c-1.19,0-2.19-0.46-3.01-1.39c-0.82-0.91-1.23-2.03-1.23-3.36c0-1.29,0.42-2.41,1.26-3.34
		c0.82-0.93,1.82-1.39,3.01-1.39c1.4,0,2.52,0.67,3.36,2.02l0.11,0.16v0.03l0.05,0.27c0,0.42-0.19,0.63-0.57,0.63
		c-0.24,0-0.41-0.11-0.52-0.33C39.11,5.3,38.3,4.79,37.3,4.79c-0.86,0-1.6,0.35-2.21,1.04c-0.6,0.67-0.9,1.49-0.9,2.43
		c0,0.97,0.3,1.79,0.9,2.46c0.6,0.69,1.33,1.04,2.19,1.04c1.46,0,2.35-0.79,2.68-2.38h-3.69c-0.38,0-0.57-0.2-0.57-0.6
		c0-0.38,0.18-0.58,0.55-0.6h0.03h4.35c0.36,0.02,0.55,0.22,0.55,0.6l-0.03,0.08c-0.05,1.2-0.44,2.2-1.15,2.98
		C39.27,12.62,38.37,13.02,37.27,13.02z"/>
	<path d="M44.02,3.58c0.46,0,0.68,0.23,0.68,0.68c0,0.44-0.23,0.66-0.68,0.66c-0.46,0-0.68-0.22-0.68-0.66
		C43.34,3.81,43.57,3.58,44.02,3.58z M44.62,12.41c-0.02,0.4-0.23,0.6-0.63,0.6c-0.4,0-0.6-0.2-0.6-0.6V6.97
		c0-0.42,0.2-0.63,0.6-0.63c0.4,0,0.61,0.2,0.63,0.6V12.41z"/>
	<path d="M49.51,12.06c0.29,0,0.44,0.14,0.44,0.41c0,0.22-0.11,0.36-0.33,0.41c-0.18,0.09-0.37,0.14-0.57,0.14h-0.11
		c-1.22,0.02-1.8-0.53-1.75-1.64V9.16h-0.35c-0.2,0-0.3-0.1-0.3-0.3c0-0.18,0.09-0.27,0.27-0.27h0.38V7.6
		c0-0.33,0.16-0.49,0.49-0.49c0.31,0,0.47,0.16,0.49,0.46v1.01h1.23c0.18,0,0.27,0.09,0.27,0.27c0,0.2-0.1,0.3-0.3,0.3h-1.2v2.02
		c0,0.64,0.15,0.98,0.44,1.04c0.18,0.04,0.35,0.04,0.49,0l0.14-0.05C49.31,12.1,49.4,12.06,49.51,12.06z"/>
	<path d="M58.94,12.41c-0.02,0.4-0.22,0.6-0.6,0.6c-0.42,0-0.63-0.2-0.63-0.6V8.5h-4.38v3.91c-0.02,0.4-0.23,0.6-0.63,0.6
		c-0.4,0-0.6-0.2-0.6-0.6V4.27c0-0.42,0.2-0.63,0.6-0.63c0.4,0,0.61,0.2,0.63,0.6v3.04h4.38V4.27c0-0.42,0.21-0.63,0.63-0.63
		c0.38,0,0.58,0.2,0.6,0.6V12.41z"/>
	<path d="M66.32,12.25c0.16-0.04,0.26,0.03,0.3,0.19c0.04,0.16-0.03,0.26-0.19,0.3H66.4c-0.47,0.2-0.89,0.29-1.26,0.27
		c-0.31-0.02-0.54-0.11-0.68-0.27c-0.11-0.15-0.17-0.29-0.19-0.44l-0.25,0.16l-0.36,0.16c-0.33,0.13-0.65,0.18-0.96,0.16
		c-1.42-0.09-2.01-1.01-1.78-2.76V7.68c0.02-0.35,0.19-0.52,0.52-0.52c0.35,0,0.52,0.17,0.52,0.52L62,10.04
		c0,1.06,0.22,1.65,0.66,1.78c0.6,0.18,1.06-0.02,1.37-0.6v-3.5c0.02-0.4,0.24-0.6,0.66-0.6c0.42,0,0.63,0.21,0.63,0.63v2.6h0.03
		c-0.02,0.64-0.02,1.16,0,1.56l0.03,0.19l0.11,0.22c0.15,0.13,0.41,0.11,0.79-0.05H66.32z"/>
	<path d="M71.21,7.74c0.46,0.15,0.85,0.42,1.18,0.82c0.38,0.51,0.6,1.15,0.66,1.91l-0.03,0.63c-0.05,0.58-0.29,1.05-0.71,1.39
		c-0.35,0.29-0.75,0.45-1.2,0.46c-0.44,0-0.8-0.07-1.09-0.22l-0.27-0.16l-0.14-0.14c-0.04,0.38-0.24,0.57-0.6,0.57
		c-0.42,0-0.63-0.21-0.63-0.63v-8.2c0-0.4,0.21-0.6,0.63-0.6c0.38,0,0.58,0.2,0.6,0.6v3.58l0.33-0.05l0.41-0.05
		C70.66,7.62,70.95,7.65,71.21,7.74z M71.84,10.5l-0.03-0.6c-0.04-0.25-0.09-0.47-0.16-0.66c-0.18-0.49-0.55-0.76-1.09-0.79
		c-0.29-0.02-0.52,0.05-0.68,0.19L69.7,8.83l-0.11,0.22v2.3c0.13,0.22,0.36,0.39,0.68,0.52c0.33,0.15,0.62,0.18,0.88,0.11
		c0.35-0.13,0.56-0.4,0.66-0.82L71.84,10.5z"/>
	<path d="M39.1,19.23c0.02,0.02,0.21,0.06,0.57,0.14c0.36,0.07,0.56,0.12,0.57,0.14c0.04,0-0.04,0.13-0.22,0.38l-0.25,0.38
		l0.38,0.44c0.25,0.31,0.58,0.67,0.98,1.07c0.38,0.38,0.67,0.65,0.88,0.79c0.18,0.13,0.4,0.25,0.66,0.36
		c0.25,0.13,0.6,0.28,1.04,0.46c0.47,0.2,0.79,0.33,0.96,0.38c0.16,0.07,0.24,0.12,0.23,0.14c-0.01,0.02-0.19,0.13-0.53,0.33
		l-0.55,0.3l-0.33-0.19c-0.18-0.07-0.43-0.2-0.74-0.38c-0.22-0.13-0.46-0.27-0.74-0.44c-0.24-0.16-0.42-0.3-0.55-0.41
		c-0.13-0.09-0.28-0.24-0.46-0.44c-0.13-0.16-0.26-0.34-0.41-0.52c-0.13-0.16-0.26-0.34-0.38-0.52c-0.13-0.2-0.26-0.42-0.38-0.66
		c-0.15-0.22-0.23-0.35-0.25-0.38c0-0.04-0.04-0.02-0.11,0.05c0,0.02-0.02,0.05-0.05,0.1c-0.04,0.05-0.08,0.1-0.14,0.15
		s-0.1,0.11-0.14,0.16c-0.15,0.18-0.36,0.41-0.63,0.68c-0.31,0.33-0.56,0.57-0.74,0.74c-0.22,0.22-0.45,0.43-0.68,0.63
		c-0.24,0.2-0.46,0.37-0.68,0.52c-0.24,0.18-0.5,0.37-0.79,0.57c-0.26,0.18-0.49,0.34-0.71,0.46c-0.11,0.05-0.31,0.16-0.6,0.33
		c-0.15,0.07-0.36,0.19-0.66,0.36c-0.2,0.09-0.31,0.14-0.33,0.14c-0.02,0-0.01-0.02,0.01-0.07c0.03-0.04,0.16-0.15,0.4-0.31
		c0.24-0.16,0.48-0.34,0.74-0.52c0.29-0.22,0.56-0.43,0.82-0.63c0.27-0.24,0.56-0.51,0.88-0.82c0.27-0.27,0.53-0.55,0.77-0.82
		c0.22-0.24,0.42-0.48,0.62-0.74c0.19-0.25,0.39-0.54,0.6-0.86c0.21-0.32,0.41-0.65,0.62-1C38.96,19.4,39.07,19.23,39.1,19.23z
		 M39.16,23.66h2.73v1.29c0,0.86-0.02,1.35-0.05,1.48c-0.04,0.15-0.08,0.26-0.14,0.36c-0.05,0.09-0.12,0.18-0.19,0.26
		c-0.07,0.08-0.16,0.14-0.27,0.18c-0.09,0.05-0.2,0.08-0.33,0.08h-0.22v-1.56v-1.56h-1.5h-1.53l-0.03,2.71
		c0,1.8-0.01,2.74-0.03,2.82l-0.05,0.08h2.63h2.6v-1.04v-1.07h0.57h0.6v0.93c0,0.37,0,0.63-0.01,0.78
		c-0.01,0.16-0.02,0.26-0.04,0.31c-0.02,0.13-0.05,0.24-0.11,0.33c-0.04,0.07-0.09,0.15-0.16,0.25c-0.07,0.07-0.17,0.15-0.3,0.22
		c-0.13,0.05-0.26,0.08-0.38,0.08h-0.16v-0.14v-0.11h-2.76h-2.76l-0.11,0.08c-0.07,0.04-0.16,0.07-0.25,0.11
		c-0.09,0.04-0.19,0.05-0.3,0.05h-0.16v-3.47v-3.45H39.16z"/>
	<path d="M54.44,19.23h0.6v0.16c0,0.09-0.01,0.22-0.03,0.38c-0.02,0.13-0.05,0.25-0.08,0.36c-0.04,0.11-0.05,0.16-0.03,0.16
		c0.02,0.02,0.74,0.03,2.16,0.03h2.13v0.25v0.25h-4.32h-4.32v3.09v3.06l-0.08,0.33c-0.05,0.22-0.11,0.42-0.16,0.6
		c-0.05,0.16-0.13,0.35-0.22,0.55c-0.11,0.18-0.2,0.34-0.27,0.46c-0.09,0.15-0.2,0.29-0.33,0.44c-0.13,0.15-0.26,0.27-0.41,0.38
		c-0.15,0.15-0.29,0.26-0.42,0.34s-0.31,0.18-0.51,0.29c-0.2,0.11-0.31,0.16-0.33,0.16c-0.02,0-0.03-0.08-0.03-0.25v-0.22l0.16-0.08
		c0.11-0.07,0.23-0.17,0.36-0.3c0.15-0.13,0.27-0.26,0.38-0.41c0.11-0.13,0.21-0.3,0.3-0.52c0.11-0.2,0.19-0.41,0.25-0.63l0.08-0.3
		l0.03-3.88v-3.88h0.6h0.6v0.14v0.14h1.64l1.61-0.03l0.03-0.52v-0.55H54.44z M54.38,21.04h0.44c0,0.02-0.11,0.26-0.33,0.71
		l-0.3,0.68h2.24h2.24v0.27v0.27H56.3h-2.38l-0.55,1.15c-0.38,0.78-0.57,1.18-0.57,1.19c0,0.01,0.37,0.01,1.12,0.01h1.09l0.03-0.66
		v-0.68l0.6-0.03h0.6v0.68v0.68h0.96h0.98l-0.03,0.27v0.25h-0.9c-0.47,0.02-0.79,0.03-0.96,0.03h-0.05v0.85v0.82l1.48,0.03h1.48
		v0.25v0.25l-1.48,0.03h-1.48v0.68c0,0.46-0.01,0.75-0.03,0.88c-0.04,0.11-0.07,0.22-0.11,0.33c-0.05,0.09-0.13,0.19-0.22,0.3
		c-0.09,0.09-0.19,0.16-0.3,0.22c-0.13,0.05-0.26,0.08-0.38,0.08l-0.16-0.03v-1.23l-0.03-1.23H52.8h-2.21v-0.27v-0.27h2.21h2.21
		v-0.82v-0.85h-1.23c-0.84,0-1.26,0.02-1.27,0.05c-0.01,0.04-0.02,0.05-0.04,0.05c-0.02,0-0.15-0.04-0.38-0.14
		c-0.24-0.11-0.37-0.17-0.38-0.19c-0.02-0.02,0.19-0.47,0.63-1.37l0.66-1.31h-0.93h-0.9v-0.27v-0.27h1.04h1.07l0.33-0.71l0.36-0.68
		H54.38z"/>
</g>
<g>
</g>
<g>
</g>
<g>
</g>
<g>
</g>
<g>
</g>
<g>
</g>
</svg>
