<?xml version="1.0" standalone="no"?><!DOCTYPE svg PUBLIC "-//W3C//DTD SVG 1.1//EN" "http://www.w3.org/Graphics/SVG/1.1/DTD/svg11.dtd"><svg t="1598108497186" class="icon" viewBox="0 0 1024 1024" version="1.1" xmlns="http://www.w3.org/2000/svg" p-id="2853" xmlns:xlink="http://www.w3.org/1999/xlink" width="128" height="128"><defs><style type="text/css"></style></defs><path d="M969.316632 56.189026c-61.987893-61.987893-165.667643-70.986136-292.542863-26.594806C623.684138 10.797891 566.795249 0 507.306868 0 227.161584 0 0.00595 227.155634 0.00595 507.300918c0 59.488381 10.797891 116.37727 29.59422 169.36692-44.39133 126.87522-35.493068 230.55497 26.594806 292.642844 36.392892 36.392892 86.883031 54.689318 148.17106 54.689318 46.090998 0 98.280805-10.59793 154.869752-31.493849 46.890842 14.297208 96.581136 22.095684 148.07108 22.095685 280.145284 0 507.300918-227.155634 507.300918-507.300918 0-51.589924-7.798477-101.280219-22.095685-148.07108 48.490529-131.774263 40.492091-239.253271-23.195469-303.040812z m-65.287249 65.287248c22.295645 22.295645 30.893966 59.28842 26.394845 106.279243-34.293302-51.889865-78.084749-96.781097-128.574888-132.974029 44.991213-3.599297 80.584261 4.999024 102.180043 26.694786zM507.306868 92.281976c175.865651 0 326.136302 110.0785 386.524507 264.848272-91.782074 213.858231-322.836946 444.913103-536.695177 536.695177C202.366426 833.437219 92.287926 683.166569 92.287926 507.300918c0-228.855302 186.16364-415.018942 415.018942-415.018942z m-385.924624 811.841437C99.786462 882.527631 91.088161 846.934583 94.787438 801.94337c36.192931 50.490139 81.084163 94.281586 132.974029 128.574888-46.990822 4.499121-84.083577-4.099199-106.379223-26.394845z m385.924624 18.196446c-1.799649 0-3.499317-0.199961-5.298965-0.299941 162.368287-98.980668 321.037297-257.649678 420.017965-420.017965 0 1.799649 0.299941 3.499317 0.299941 5.198984 0 228.955282-186.16364 415.118922-415.018941 415.118922z" p-id="2854"></path></svg>